inDegrees=no
num_controls=7
num_derivatives=13
num_iterations=144
num_multipliers=7
num_parameters=0
num_slacks=7
num_states=26
objective=0.476953
objective_accelerations=0.044341
objective_balance=0.003616
objective_effort=0.040494
objective_height=0.382842
objective_ligament=0.005661
solver_duration=1964.354285
status=Solve_Succeeded
success=true
DataType=double
version=3
OpenSimVersion=4.5
endheader
time	/jointset/ground_pelvis/pelvis_tilt/value	/jointset/ground_pelvis/pelvis_tx/value	/jointset/ground_pelvis/pelvis_ty/value	/jointset/hip_l/hip_flexion_l/value	/jointset/hip_l/hip_adduction_l/value	/jointset/hip_l/hip_rotation_l/value	/jointset/back/lumbar_extension/value	/jointset/patellofemoral_l/patellar_flexion_l/value	/jointset/knee_l/knee_flexion_l/value	/jointset/knee_l/knee_adduction_l/value	/jointset/knee_l/knee_rotation_l/value	/jointset/ankle_l/ankle_angle_l/value	/jointset/subtalar_l/subtalar_angle_l/value	/jointset/ground_pelvis/pelvis_tilt/speed	/jointset/ground_pelvis/pelvis_tx/speed	/jointset/ground_pelvis/pelvis_ty/speed	/jointset/hip_l/hip_flexion_l/speed	/jointset/hip_l/hip_adduction_l/speed	/jointset/hip_l/hip_rotation_l/speed	/jointset/back/lumbar_extension/speed	/jointset/patellofemoral_l/patellar_flexion_l/speed	/jointset/knee_l/knee_flexion_l/speed	/jointset/knee_l/knee_adduction_l/speed	/jointset/knee_l/knee_rotation_l/speed	/jointset/ankle_l/ankle_angle_l/speed	/jointset/subtalar_l/subtalar_angle_l/speed	/forceset/tau_hip_flexion_l	/forceset/tau_hip_adduction_l	/forceset/tau_hip_rotation_l	/forceset/tau_knee_flexion_l	/forceset/tau_ankle_angle_l	/forceset/tau_subtalar_angle_l	/forceset/tau_lumbar_extension	lambda_cid13_p0	lambda_cid13_p1	lambda_cid13_p2	lambda_cid13_p3	lambda_cid13_p4	lambda_cid13_p5	lambda_cid14_p0	/jointset/ground_pelvis/pelvis_tilt/accel	/jointset/ground_pelvis/pelvis_tx/accel	/jointset/ground_pelvis/pelvis_ty/accel	/jointset/hip_l/hip_flexion_l/accel	/jointset/hip_l/hip_adduction_l/accel	/jointset/hip_l/hip_rotation_l/accel	/jointset/back/lumbar_extension/accel	/jointset/patellofemoral_l/patellar_flexion_l/accel	/jointset/knee_l/knee_flexion_l/accel	/jointset/knee_l/knee_adduction_l/accel	/jointset/knee_l/knee_rotation_l/accel	/jointset/ankle_l/ankle_angle_l/accel	/jointset/subtalar_l/subtalar_angle_l/accel	gamma_cid13_p0	gamma_cid13_p1	gamma_cid13_p2	gamma_cid13_p3	gamma_cid13_p4	gamma_cid13_p5	gamma_cid14_p0
1.5	0.01158430795215947	-0.01082926240174648	0.852637355488328	0.669960241233428	-0.3224715812395747	-0.1326562098251823	-0.7962889108391397	0.7794953160837641	0.7794953160837577	-0.1025157138526698	-0.1745239307617363	0.1557870349537652	0.02506479715267918	0.3125644770156499	0.2306071016414092	0.4224124446060341	-1.974947938387046	0.08467010701960934	-0.6434152791149425	0.8388789740529364	-2.000366494528282	-2.000366494528604	-0.1458365357935108	-0.0001429572649804275	-0.4603787252575769	-0.06490102837439993	-0.1940895238874022	0.01940634083752032	-0.005307459396467822	-0.2286475240626128	0.06414604938630203	0.04336124371134734	0.2771488021664537	-21.37136641696121	-17.54307823848283	5.144753811605003	-7.61131756780176	-669.0375151020213	-78.3102560892672	-15.22017111775972	-0.02003205824184296	0.6466452555053099	-0.6209141002278196	-0.6709810768060239	0.4734258164210912	-0.3701243051051639	1.960519982628582	-0.9919624447316276	-0.9919624447316229	-0.2506130015711767	0.01975883293590102	-0.2886301672125804	0.4544132667230131	3.281955791511726e-07	9.74504697662796e-07	-1.478494047951731e-06	-2.678154297281402e-08	4.109769050515144e-07	5.870753618888916e-07	2.954433101249691e-07
1.51	0.0147088259565091	-0.008491063140857407	0.8568296224020525	0.6501789026785421	-0.3216020881065738	-0.1391087284709588	-0.7878034825291038	0.7594443142799759	0.7594443142799706	-0.1039881064392983	-0.1745257787491496	0.1511692533896077	0.02443754007114272	0.3122982029763308	0.237008502127843	0.4159555087809107	-1.98106914001597	0.08922505695774247	-0.6469926279423402	0.8580977386197383	-2.009558310051838	-2.009558310051876	-0.1486623428354623	-0.0002043019308641318	-0.4630911786006978	-0.06053297507276949	-0.1870626017503964	0.01859392024886253	-0.00508096108640136	-0.2247121615585576	0.0647158236493857	0.04261450498862816	0.2702517647626029	-20.96519418190752	-17.33046611273678	5.157207789149871	-7.523207727672445	-664.6241155592854	-78.17489527055447	-15.93906562506786	-0.03605244655674154	0.6332711816246257	-0.6708287117180811	-0.5450808276406972	0.4459432917729638	-0.3369240112646475	1.886212293526835	-0.8415077935752773	-0.8415077935325951	-0.3014005973309418	-0.0158763236890433	-0.2495390529127604	0.4304633498451106	2.595071626862565e-07	1.318755861203243e-06	-9.993680021391416e-07	6.018662185525308e-08	3.6748371320778e-07	6.216375416328904e-07	2.658270416864438e-07
1.52	0.01782945574650942	-0.006089573127821575	0.860954770879913	0.6303438738830259	-0.3206871627323389	-0.1455940973729519	-0.7791291350534356	0.7393096509834699	0.7393096509834702	-0.1054893243047085	-0.1745275992247036	0.1465269500650086	0.02385445592021495	0.3117868341458219	0.2432652520707609	0.4089887574332502	-1.985685986513094	0.09375655526641867	-0.6499853303580411	0.8766628071793753	-2.017098793071698	-2.017098793071451	-0.151601591550367	-0.000137454890289586	-0.4652830773458554	-0.05606644225265733	-0.1800356796133907	0.01778149966019963	-0.004854462776316845	-0.2207767990545035	0.06528559791246749	0.04186776626590184	0.2633547273587536	-20.55840257138365	-17.11983063139964	5.17211173385339	-7.47379961283677	-660.2331117297849	-78.08249007650667	-16.647105858832	-0.06905101647980189	0.6177151468021376	-0.7228772047351968	-0.3701100504458879	0.4687354905297091	-0.2531950227657636	1.82978078119561	-0.6616959439921348	-0.6616959439921558	-0.2733013361618276	0.04539717422756198	-0.1845192476199473	0.4741091704193628	2.014996712401158e-07	1.628644965979515e-06	-6.004490086744054e-07	1.324221176087525e-07	3.376601396246038e-07	6.476518524210197e-07	2.428931055645629e-07
1.53	0.02094376544241679	-0.003626304660932551	0.8650077932842161	0.6104701632032871	-0.3197269512514054	-0.1521078217008507	-0.77027271198701	0.7191078564394967	0.7191078564395089	-0.1070194984513397	-0.1745290069731116	0.1418653540592789	0.02331666836220102	0.3110316906971574	0.2493572103008828	0.4015373655759631	-1.988797639502725	0.09827805594726466	-0.6526770642186617	0.8944881999605343	-2.022976418126328	-2.022976418126223	-0.1544433912620728	-0.0001351269460508494	-0.4669477347301678	-0.05147774601775578	-0.1727339242298879	0.01660029094287861	-0.004692968010820341	-0.2172921106670629	0.06617698733163298	0.04112735858724566	0.2562311185764726	-20.06316527600652	-16.92530872381896	5.187159984040254	-7.409404848442905	-656.0314134271567	-78.08910590084429	-17.3447365091903	-0.08526555529148377	0.6002953693455318	-0.7679610199747001	-0.2429235555773992	0.4424758517534343	-0.2645846508104463	1.738877604787183	-0.5082848631603181	-0.508284863181543	-0.2908091929452939	-0.02103466696551496	-0.1441126810368478	0.452937089815004	1.548406626264238e-07	1.902024383318851e-06	-2.867500083292621e-07	1.89004152470524e-07	3.223605354432704e-07	6.645840524435375e-07	2.270591475291167e-07
